<?xml version="1.0" standalone="no"?>
<!DOCTYPE svg PUBLIC "-//W3C//DTD SVG 20010904//EN"
 "http://www.w3.org/TR/2001/REC-SVG-20010904/DTD/svg10.dtd">
<svg version="1.0" xmlns="http://www.w3.org/2000/svg"
 width="700.000000pt" height="700.000000pt" viewBox="0 0 700.000000 700.000000"
 preserveAspectRatio="xMidYMid meet">
<metadata>
Created by potrace 1.14, written by Peter Selinger 2001-2017
</metadata>
<g transform="translate(0.000000,700.000000) scale(0.100000,-0.100000)"
fill="#000000" stroke="none">
<path d="M3263 5999 c-68 -9 -112 -35 -141 -85 -18 -33 -401 -1174 -851 -2544
-61 -184 -118 -345 -126 -358 -13 -18 -25 -22 -61 -20 -33 1 -50 -4 -65 -18
-11 -12 -55 -129 -105 -279 -95 -289 -108 -320 -145 -347 -21 -16 -134 -55
-209 -73 -26 -6 -329 -95 -485 -142 -82 -25 -163 -49 -180 -53 -150 -39 -181
-71 -130 -139 43 -59 262 -231 294 -231 5 0 11 -3 13 -8 4 -10 173 -92 279
-136 171 -70 503 -170 665 -200 333 -61 501 -83 754 -101 41 -3 100 -7 130
-10 227 -19 717 -24 1023 -11 98 4 186 9 195 10 9 2 60 7 112 11 52 4 109 8
125 10 17 2 57 7 90 10 67 7 142 16 166 20 9 2 40 6 70 10 100 12 323 56 464
90 402 99 742 244 952 407 156 120 195 188 133 226 -21 13 -942 272 -966 272
-6 0 -23 9 -37 20 -21 17 -43 72 -117 298 -51 152 -98 291 -106 307 -19 41
-60 64 -105 59 l-36 -4 -307 927 c-169 511 -312 939 -317 952 -17 41 -33 44
236 -39 237 -73 275 -82 302 -75 29 7 46 46 33 78 -8 20 -153 193 -345 411 -5
6 -26 29 -45 52 -19 22 -60 69 -90 104 -30 35 -75 86 -99 114 -24 28 -55 65
-70 81 -14 17 -90 105 -169 196 -89 104 -157 174 -183 188 -40 23 -51 24 -268
25 -124 0 -249 -2 -278 -5z m485 -138 c24 -13 64 -55 163 -171 35 -41 66 -77
69 -80 5 -4 53 -61 216 -250 12 -14 41 -47 66 -75 24 -27 82 -95 128 -150 47
-55 99 -115 115 -133 45 -51 52 -66 26 -57 -12 4 -72 22 -134 40 -62 18 -166
51 -232 74 -66 22 -123 37 -126 33 -4 -4 154 -491 352 -1082 197 -591 359
-1078 359 -1081 0 -6 -602 -1 -646 6 -20 4 -42 19 -63 45 -61 77 -42 74 -541
74 -502 0 -477 4 -544 -78 l-37 -46 -330 0 -330 0 6 23 c4 12 152 463 330
1002 178 539 389 1178 469 1420 80 242 153 450 162 463 9 13 26 27 38 31 35
14 457 7 484 -8z m223 -2900 l29 -29 -3 -446 -2 -445 -23 -23 -23 -23 -437 -3
c-340 -1 -443 1 -462 11 -50 25 -51 38 -51 464 -1 219 0 413 0 431 1 23 10 43
30 63 l29 29 442 0 442 0 29 -29z m-1040 -114 c3 -70 4 -676 0 -694 -2 -13 -6
-21 -10 -19 -3 2 -51 7 -106 10 -120 8 -202 16 -310 30 -16 2 -55 7 -85 10
-30 4 -77 11 -105 16 -27 5 -67 12 -88 15 -32 4 -103 18 -207 40 -61 13 -102
24 -107 28 -4 5 118 379 168 512 12 32 28 56 42 62 13 6 178 10 414 11 l393 1
1 -22z m1963 3 c24 -26 198 -563 185 -571 -12 -7 -177 -43 -249 -54 -19 -3
-42 -8 -50 -10 -8 -3 -31 -7 -50 -9 -19 -3 -80 -12 -135 -20 -55 -8 -129 -17
-165 -21 -36 -3 -76 -8 -90 -10 -14 -1 -64 -6 -110 -10 -47 -4 -102 -9 -122
-10 l-38 -4 0 368 0 368 405 -1 c341 -2 407 -4 419 -16z m-2894 -656 c164 -34
160 -33 195 -39 92 -16 145 -25 185 -30 25 -3 56 -8 70 -10 14 -2 54 -7 90
-10 36 -3 76 -7 90 -10 14 -2 59 -7 100 -10 168 -13 184 -15 202 -31 10 -10
18 -23 18 -29 0 -20 39 -64 72 -81 25 -13 93 -15 472 -15 508 0 494 -2 548 80
41 63 43 64 213 76 44 3 94 8 110 10 36 5 102 13 170 21 55 6 97 12 135 19 14
2 43 7 65 10 22 3 65 10 95 15 30 6 69 13 85 16 17 3 58 12 93 19 103 24 131
25 195 5 57 -17 562 -158 722 -201 123 -33 129 -35 132 -46 5 -14 -93 -84
-210 -151 -213 -121 -507 -225 -852 -301 -92 -20 -107 -23 -185 -36 -25 -4
-54 -9 -65 -11 -18 -4 -263 -37 -358 -49 -21 -3 -78 -7 -125 -11 -48 -3 -103
-7 -122 -10 -224 -25 -1032 -25 -1290 1 -19 1 -73 6 -120 10 -144 12 -155 13
-236 24 -44 6 -101 13 -129 17 -27 3 -59 8 -70 10 -10 2 -37 6 -60 10 -22 3
-74 12 -115 20 -41 9 -88 18 -105 21 -66 11 -297 74 -400 108 -150 50 -311
117 -425 176 -99 52 -253 157 -254 173 -1 5 19 15 44 22 25 6 146 41 270 78
124 37 248 73 275 81 176 52 290 86 293 90 5 4 29 0 182 -31z"/>
<path d="M3315 3942 c-22 -2 -45 -8 -52 -14 -18 -15 -19 -458 -1 -476 17 -17
459 -17 476 0 19 19 17 462 -2 477 -14 11 -323 21 -421 13z m363 -79 c5 -8 8
-307 3 -346 -1 -4 -83 -6 -183 -5 l-182 3 -1 170 c0 94 3 175 6 180 11 15 348
13 357 -2z"/>
</g>
</svg>
