<?xml version="1.0" encoding="utf-8"?>
<!-- Generator: Adobe Illustrator 27.4.0, SVG Export Plug-In . SVG Version: 6.00 Build 0)  -->
<svg version="1.1" id="Ebene_1" xmlns="http://www.w3.org/2000/svg" xmlns:xlink="http://www.w3.org/1999/xlink" x="0px" y="0px"
	 viewBox="0 0 800 800" style="enable-background:new 0 0 800 800;" xml:space="preserve">
<style type="text/css">
	.st0{fill:#FFFFFF;}
</style>
<path class="st0" d="M705.2,559.5c-34.8-9.6-69.5-19.5-104.4-28.9c-4.4-1.1-6.2-3.3-7.4-7.1c-6-18.4-12.6-36.6-18.1-55.1
	c-3.1-10.2-6.4-18.5-19.5-15c-24.4-73-48.5-145.3-72.8-219c19.3,5.9,37,11.3,54.8,16.7c4.1,1.2,8.5,2.6,11.4-1.8
	c3.1-4.7,0.1-8.3-2.9-11.8c-34.4-39.7-68.7-79.4-102.9-119.2c-5.4-6.3-12-9.4-20.2-9.3c-14.2,0.1-28.5,0-42.7,0
	c-17.2,0-22.7,4.1-28.1,20.3C317.3,235.2,282.2,341.1,247.3,447c-1.5,4.3-3.1,6.9-8.2,6.1c-6.7-1-10.1,2.4-12.1,8.7
	c-5.8,18.3-12.4,36.2-17.8,54.5c-2.4,8.1-6.4,11.8-14.6,14.1c-34.3,9.6-68.4,19.9-102.6,30.1c-8.2,2.5-9.5,7.7-3.9,14
	c1.5,1.8,3.2,3.4,4.9,5c17.4,16.1,37.9,27,59.6,35.9c57.9,23.7,118.9,32.6,180.8,36.4c60,3.7,119.9,2.9,179.6-4.1
	c42.3-5,83.9-13,123.8-28.1c26.8-10.1,52.4-22.3,73.1-42.8C718.8,567.9,717.2,562.8,705.2,559.5z M260.3,452.5
	C295.6,346,331,239.4,366,132.8c2.3-7,5.9-9.7,13.1-9.5c14.2,0.4,28.5-0.2,42.7,0.3c3.5,0.1,8.1,1.6,10.3,4.1
	c29.2,33.4,58.1,67,87,100.6c0.2,0.4,0.4,0.9,1.1,2.4l-29.6-8.7c-10-2.8-30.2-11.9-29.9-8.5s3.7,11.1,4.1,12.3
	c45.2,136.2,43.7,131.2,45,135.1c10.8,32.3,21.7,64.5,32.2,96.8c2.2,6.7,5.4,10.5,12.9,9.8c1.8-0.1,5,1.2,5.5,2.6
	c7.4,21.3,14.4,42.7,21.7,64.6c-38.8,9.2-77.5,14.1-117.1,16.7v-83.9c10.3,0,20.7,0,31.1,0c1.4,0,3,0.4,4.2-0.1
	c2.5-1,4.8-2.3,7.2-3.5c-2.4-1.3-4.8-3.4-7.3-3.5c-10.3-0.4-20.6,0-30.8-0.4c-2.3-0.1-5.3-2.1-6.6-4.1c-4-6.3-9.2-9.9-16.6-9.9
	c-30.8,0-61.6,0-92.4,0c-7.5,0-12.7,3.7-16.5,10c-1,1.7-3,4-4.6,4c-24.5,0.3-48.9,0.2-74.4,0.2C259,457.2,259.5,454.8,260.3,452.5z
	 M342.5,466.4c0.1-9.3,3.9-13.2,13.2-13.2c29.3-0.1,58.7-0.1,88.1,0c9.6,0,13.4,3.9,13.4,13.7c0.1,29.1,0.1,58.3,0,87.4
	c0,9.8-3.7,13.5-13.5,13.5c-29.1,0-58.3,0-87.4,0c-10.1,0-13.7-3.6-13.7-14c0-14.7,0-29.4,0-44.1
	C342.6,495.3,342.5,480.8,342.5,466.4z M224.2,515.3c4.8-14.3,9.5-28.7,14.6-42.9c0.7-2.1,3.8-4.9,5.8-4.9
	c29.4-0.3,58.7-0.1,88.1-0.1c0.7,0,1.3,0.4,2.6,0.7v83c-39.5-2.2-78.3-7.3-117.4-16.5C220.1,527.9,222.1,521.6,224.2,515.3z
	 M687.5,577c-28.2,20.5-60.3,32.2-93.5,41.1c-44.1,11.7-89.2,17.2-134.7,19.7c-47.1,2.6-94.2,2.5-141.2-1.5
	c-58.7-4.9-116.5-14.3-170.8-39c-14.7-6.7-28.5-14.6-41.9-26c34.9-10.3,68.4-20.2,101.9-30c2.5-0.8,5.6-0.5,8.2,0.1
	c37.5,9.1,75.6,14.2,114,16.6c4,0.2,6.1,1.4,7.5,5.4c2.6,7.3,8.3,11.3,16.1,11.3c31.3,0.1,62.5,0.2,93.8,0
	c8.1-0.1,13.3-4.6,16.6-11.9c0.9-2.1,4-4.4,6.2-4.6c38-2.7,75.6-7.7,112.7-16.2c2-0.4,4.2-0.5,6.1,0c34.8,9.6,69.5,19.3,105.6,29.3
	C691.4,573.6,689.6,575.5,687.5,577z"/>
<path class="st0" d="M400.6,349.5c7.2,0,14.4,0.1,21.7,0c4.3-0.1,6.5,1.5,6.4,6.1c-0.1,15.1-0.1,30.3,0,45.4c0,4.1-1.7,5.9-5.8,5.9
	c-15.1-0.1-30.3-0.1-45.4,0c-4.5,0-6.1-2.1-6.1-6.4c0.1-14.9,0.1-29.8,0-44.7c-0.1-5,2.4-6.4,6.9-6.3
	C385.7,349.6,393.1,349.5,400.6,349.5L400.6,349.5z M379,357.1V399h42v-41.9H379L379,357.1z"/>
</svg>
