<?xml version="1.0" encoding="UTF-8" standalone="no"?>
<!DOCTYPE svg PUBLIC "-//W3C//DTD SVG 1.1//EN" "http://www.w3.org/Graphics/SVG/1.1/DTD/svg11.dtd">
<svg width="100%" height="100%" viewBox="0 0 19 9" version="1.1" xmlns="http://www.w3.org/2000/svg" xmlns:xlink="http://www.w3.org/1999/xlink" xml:space="preserve" xmlns:serif="http://www.serif.com/" style="fill-rule:evenodd;clip-rule:evenodd;stroke-linejoin:round;stroke-miterlimit:2;">
    <g id="ArtBoard1" transform="matrix(1,0,0,0.895387,-0.912019,-7.88669)">
        <rect x="0.912" y="8.808" width="18.866" height="9.965" style="fill:none;"/>
        <g transform="matrix(1,0,0,1.11684,0.425811,7.64789)">
            <path d="M15.733,5.628L15.733,3.75C15.733,3.339 16.072,3 16.483,3C16.894,3 17.233,3.339 17.233,3.75L17.233,7.25C17.233,7.661 16.894,8 16.483,8L12.483,8C12.072,8 11.733,7.661 11.733,7.25C11.733,6.839 12.072,6.5 12.483,6.5L14.508,6.5C13.313,5.11 11.605,4.25 9.733,4.25C7.334,4.25 5.203,5.665 4.078,7.793C3.939,8.069 3.658,8.245 3.35,8.25C2.812,8.25 2.439,7.717 2.68,7.237C4.023,4.579 6.658,2.75 9.734,2.75C12.14,2.75 14.276,3.869 15.734,5.628" style="fill:white;fill-rule:nonzero;"/>
        </g>
    </g>
</svg>
